<?xml version="1.0" encoding="utf-8"?>
<!-- Generator: Adobe Illustrator 25.2.3, SVG Export Plug-In . SVG Version: 6.00 Build 0)  -->
<svg version="1.1" id="Layer_1" xmlns="http://www.w3.org/2000/svg" xmlns:xlink="http://www.w3.org/1999/xlink" x="0px" y="0px"
	 viewBox="0 0 1446.16 1446.16" style="enable-background:new 0 0 1446.16 1446.16;" xml:space="preserve">
<style type="text/css">
	.st0{fill:#E6E6E6;}
	.st1{fill:#D5964C;}
	.st2{fill:#2EA69E;}
	.st3{fill:#8A5545;}
</style>
<rect class="st0" width="1446.16" height="1446.16"/>
<g>
	<path class="st1" d="M470.73,576.45c90.97,15.75,179.28,44.02,265.77,75.84c17.4,6.04,35.64-0.4,53.08-2.88
		c15.19-2.59,30.54-4.52,45.97-5.9c-0.32-5.78-0.66-11.56-0.91-17.35c-0.07-1.7-0.61-2.59-2.44-2.95
		c-10.01-1.96-14.93-7.48-15.43-17.87c-0.27-5.56,0.06-11.16,0.39-16.72c0.22-3.74,1.83-5.65,4.1-5.7c2.23-0.05,3.87,1.49,4.24,5.28
		c0.58,6.02,0.64,12.1,0.94,18.15c0.25,5.05,3.46,8.35,8.23,8.19c0.09-0.9,0.23-1.84,0.25-2.78c0.26-9.54,0.48-19.09,0.78-28.63
		c0.06-1.76,0.3-3.55,0.75-5.25c0.44-1.67,1.69-3.11,3.48-2.73c1.29,0.28,2.71,1.37,3.43,2.5c0.76,1.21,1.01,2.9,1.06,4.4
		c0.53,14.39,0.97,28.79,1.44,43.18c0.03,0.78,0.09,1.55,0.14,2.34c4.13-0.55,7.42-4.24,8.04-9.29c0.53-4.33,0.56-8.71,1.06-13.05
		c0.25-2.12,0.8-4.31,1.73-6.22c0.48-0.99,2.14-2.05,3.18-1.96c1.04,0.08,2.09,1.45,2.89,2.45c0.46,0.57,0.57,1.51,0.63,2.3
		c0.56,7.67,1.12,15.38-2.06,22.69c-2.69,6.18-6.72,11.05-13.65,12.7c-1.42,0.34-1.93,1.13-1.98,2.56c-0.03,0.96-0.12,1.91-0.2,2.87
		c22.28-1.6,44.69-1.78,67-0.58c-0.42-1.54-1.03-3.39-1.16-3.66c-1.96-4.08-5.63-7-9.65-8.91c-1.3-0.62-2.5-1.26-3.94-1.47
		c-2.05-0.3-3.77-1.23-3.67-3.61c0.07-1.65,1.37-3.28,3.09-3.33c3.46-0.09,6.9,2.37,9.73,4.06c4.95,2.97,9.12,7.33,11.04,12.85
		c-0.77-2.2,2.85-5.9,4.1-7.49c2.09-2.65,4.6-5.11,7.67-6.6c1.07-0.52,2.3-0.78,3.45-0.49c0.33,0.08,0.63,0.21,0.91,0.38
		c1.29,0.79,1.87,2.41,1.52,3.93c-0.64,2.75-4,2.81-5.92,4.26c-1.68,1.27-3.09,2.87-4.18,4.67c-0.27,0.45-1.7,3.88-2.4,6.04
		c21.04,1.58,41.93,4.56,62.51,8.94c-0.46-8.31-0.95-16.61-1.31-24.92c-0.1-2.43-0.88-3.69-3.47-4.2
		c-14.28-2.8-21.29-10.66-22.01-25.49c-0.38-7.92,0.09-15.91,0.55-23.85c0.31-5.33,2.6-8.06,5.84-8.13
		c3.18-0.07,5.52,2.13,6.05,7.54c0.83,8.59,0.91,17.26,1.33,25.89c0.35,7.21,4.93,11.91,11.73,11.68c0.12-1.29,0.32-2.63,0.36-3.97
		c0.38-13.61,0.68-27.23,1.12-40.84c0.08-2.51,0.43-5.06,1.07-7.49c0.63-2.38,2.41-4.44,4.96-3.89c1.84,0.39,3.87,1.95,4.89,3.57
		c1.09,1.73,1.44,4.14,1.51,6.27c0.75,20.53,1.38,41.06,2.05,61.59c0.04,1.11,0.13,2.21,0.2,3.34c5.89-0.78,10.58-6.05,11.47-13.24
		c0.76-6.17,0.8-12.43,1.51-18.61c0.35-3.03,1.13-6.15,2.46-8.87c0.69-1.42,3.05-2.92,4.53-2.8c1.48,0.12,2.97,2.07,4.13,3.49
		c0.65,0.81,0.81,2.15,0.89,3.28c0.8,10.95,1.6,21.93-2.93,32.36c-3.84,8.82-9.58,15.76-19.48,18.12c-2.02,0.48-2.75,1.61-2.82,3.65
		c-0.1,2.92-0.41,5.83-0.61,8.75c22.97,5.69,45.47,13.21,67.21,22.84c4.78,2.09,9.5,4.33,14.2,6.61
		c7.79-56.45,1.5-114.65-17.44-168.37c-95.43-6.11-190.79-13.26-286.31-17.36c1.38-0.93,4.17-2.75,5.55-3.68
		c17.04-0.22,34.13-0.93,51.08-2.71c70.44-6.33,140.99-11.36,211.2-19.33c-31.95-62.77-82.47-116.01-143.78-150.79
		c-68.05-38.91-149.03-54.59-226.64-43.89c-44.97,5.87-88.55,20.72-128.05,42.85c65.89,9.62,132.5,13.51,198.79,19.32
		c24.98,2.75,50.41,1.73,75.13,7.01c-116.84,10.64-233.6,21.91-350.57,31.16c-5.95,5.86-11.75,11.86-17.27,18.14
		c-22.33,24.92-40.9,53.06-55.38,83.19c41.49,9.4,83.76,15.5,125.36,24.7c34.88,7.23,70.78,10.52,104.73,21.79
		c-18.24,2.53-36.66,2.8-55.03,2.53c-64.8-0.13-129.56-0.06-194.35-0.17c-4.21,13.44-7.68,27.11-10.28,40.95
		C402.29,568.53,436.76,570.41,470.73,576.45z"/>
	<path class="st2" d="M381.04,752.57c3.09,9.07,6.53,18.02,10.33,26.82c10.08,0.78,20.15,1.57,30.23,2.52
		c-8.55,2.54-17.09,5.09-25.62,7.65c4.75,10.12,9.93,20.04,15.62,29.66c35.92-1.36,71.62-7.02,107.63-5.89
		c-29.42,11.8-58.93,23.36-88.28,35.27c8.72,11.99,18.18,23.42,28.3,34.24c51.15-2.99,102.18-9.19,153.39-12.09
		c-41.84,14.19-84.83,24.85-127.17,37.48c33.9,29.65,73.24,53.07,115.71,68.15c77.42,27.99,164.38,28.04,241.92,0.59
		c-22.15-9.42-45.41-16.21-67.24-26.48c33.92,1.98,67.33,8.64,101.04,12.76c27.57-12.92,53.34-29.46,76.67-48.95
		c-48.49-15.89-98.29-27.53-146.78-43.38c59.38,3.38,118.6,9.94,177.97,14.01c8.52-9,16.6-18.41,24.18-28.21
		c-36.03-15.05-72.56-28.89-108.74-43.49c44.36-0.08,88.58,4.87,132.85,8.25c5.18-8.59,10.04-17.38,14.49-26.37
		c-16.13-5.68-33.43-7.58-49.71-12.73c19.04-3.16,38.45-2.6,57.62-4.46c3.57-8.29,6.86-16.7,9.78-25.24
		C837.18,751.98,609.11,752.35,381.04,752.57z"/>
	<path class="st3" d="M1081.17,684.29c-4.7-2.28-9.42-4.53-14.2-6.61c-21.74-9.63-44.24-17.15-67.21-22.84
		c0.2-2.92,0.51-5.83,0.61-8.75c0.07-2.04,0.8-3.17,2.82-3.65c9.89-2.36,15.64-9.3,19.48-18.12c4.54-10.43,3.74-21.41,2.93-32.36
		c-0.08-1.12-0.24-2.47-0.89-3.28c-1.15-1.42-2.65-3.37-4.13-3.49c-1.48-0.12-3.84,1.38-4.53,2.8c-1.33,2.72-2.11,5.84-2.46,8.87
		c-0.72,6.18-0.76,12.44-1.51,18.61c-0.88,7.19-5.58,12.46-11.47,13.24c-0.07-1.13-0.17-2.23-0.2-3.34
		c-0.67-20.53-1.3-41.07-2.05-61.59c-0.08-2.13-0.43-4.54-1.51-6.27c-1.02-1.62-3.05-3.17-4.89-3.57c-2.56-0.55-4.34,1.52-4.96,3.89
		c-0.64,2.42-0.99,4.98-1.07,7.49c-0.44,13.61-0.74,27.23-1.12,40.84c-0.04,1.34-0.24,2.68-0.36,3.97
		c-6.8,0.23-11.38-4.47-11.73-11.68c-0.42-8.63-0.5-17.3-1.33-25.89c-0.53-5.41-2.86-7.61-6.05-7.54c-3.24,0.07-5.53,2.8-5.84,8.13
		c-0.46,7.94-0.93,15.92-0.55,23.85c0.72,14.82,7.72,22.69,22.01,25.49c2.6,0.51,3.37,1.77,3.47,4.2
		c0.36,8.31,0.85,16.62,1.31,24.92c-20.58-4.38-41.47-7.35-62.51-8.94c0.7-2.16,2.13-5.59,2.4-6.04c1.09-1.8,2.5-3.4,4.18-4.67
		c1.92-1.45,5.28-1.51,5.92-4.26c0.35-1.52-0.23-3.14-1.52-3.93c-0.27-0.17-0.57-0.3-0.91-0.38c-1.15-0.29-2.38-0.03-3.45,0.49
		c-3.06,1.49-5.58,3.95-7.67,6.6c-1.25,1.58-4.86,5.29-4.1,7.49c-1.92-5.52-6.09-9.88-11.04-12.85c-2.82-1.69-6.27-4.15-9.73-4.06
		c-1.72,0.05-3.01,1.68-3.09,3.33c-0.11,2.38,1.62,3.31,3.67,3.61c1.44,0.21,2.64,0.85,3.94,1.47c4.02,1.91,7.7,4.83,9.65,8.91
		c0.13,0.27,0.74,2.12,1.16,3.66c-22.3-1.21-44.71-1.02-67,0.58c0.08-0.96,0.17-1.91,0.2-2.87c0.05-1.43,0.56-2.22,1.98-2.56
		c6.94-1.65,10.96-6.52,13.65-12.7c3.18-7.31,2.62-15.01,2.06-22.69c-0.06-0.79-0.17-1.73-0.63-2.3c-0.81-1-1.85-2.36-2.89-2.45
		c-1.04-0.08-2.69,0.97-3.18,1.96c-0.93,1.91-1.48,4.09-1.73,6.22c-0.5,4.33-0.53,8.72-1.06,13.05c-0.62,5.04-3.91,8.74-8.04,9.29
		c-0.05-0.79-0.12-1.56-0.14-2.34c-0.47-14.39-0.91-28.79-1.44-43.18c-0.05-1.5-0.3-3.18-1.06-4.4c-0.71-1.13-2.14-2.22-3.43-2.5
		c-1.79-0.38-3.04,1.06-3.48,2.73c-0.45,1.7-0.69,3.49-0.75,5.25c-0.31,9.54-0.52,19.09-0.78,28.63c-0.03,0.94-0.17,1.88-0.25,2.78
		c-4.77,0.16-7.98-3.13-8.23-8.19c-0.3-6.05-0.35-12.13-0.94-18.15c-0.37-3.79-2.01-5.34-4.24-5.28c-2.27,0.05-3.88,1.96-4.1,5.7
		c-0.33,5.56-0.65,11.16-0.39,16.72c0.5,10.39,5.42,15.91,15.43,17.87c1.82,0.36,2.36,1.24,2.44,2.95
		c0.25,5.79,0.59,11.57,0.91,17.35c-15.42,1.38-30.78,3.31-45.97,5.9c-17.44,2.48-35.68,8.92-53.08,2.88
		c-86.49-31.82-174.8-60.09-265.77-75.84c-33.96-6.03-68.44-7.91-102.83-6.84c-2.78,14.74-4.63,29.67-5.51,44.65
		c-2.49,39.28,1.76,78.95,12.13,116.94c111.63,1.25,223.3,0.12,334.97,0.7c120.8-0.8,241.59,0.86,362.34-0.7
		c3.22-11.89,5.83-23.95,7.73-36.17c0.61-3.56,1.12-7.14,1.62-10.72c0.45,0.22,0.9,0.41,1.35,0.63l1.95,0.89
		C1083.38,685.29,1082.26,684.82,1081.17,684.29z"/>
	<path class="st2" d="M461.5,1083.74c0-27.72,0-32.83-0.36-38.67c-0.36-6.2-1.82-9.12-7.84-10.4c-1.46-0.37-4.56-0.55-7.11-0.55
		c-2.01,0-3.1-0.36-3.1-1.64c0-1.28,1.28-1.64,4.01-1.64c9.67,0,21.16,0.55,26.26,0.55c5.65,0,17.14-0.55,28.09-0.55
		c22.8,0,53.26,0,73.14,20.79c9.12,9.48,17.69,24.62,17.69,46.33c0,22.98-9.67,40.49-19.88,50.89c-8.39,8.57-27.36,21.52-61.1,21.52
		c-6.57,0-14.04-0.55-20.97-1.09c-6.93-0.55-13.31-1.09-17.87-1.09c-2.01,0-6.02,0-10.4,0.18c-4.19,0-8.94,0.37-12.58,0.37
		c-2.37,0-3.65-0.55-3.65-1.82c0-0.91,0.73-1.46,2.92-1.46c2.74,0,4.92-0.37,6.57-0.73c3.65-0.73,4.56-4.74,5.29-10.03
		c0.91-7.66,0.91-22.07,0.91-38.85V1083.74z M484.3,1103.8c0,19.33,0.18,33.38,0.36,36.84c0.18,4.56,0.55,11.85,2.01,13.86
		c2.37,3.47,9.48,7.29,23.89,7.29c18.6,0,31-3.65,41.95-13.13c11.67-10.03,15.32-26.63,15.32-45.41c0-23.16-9.67-38.12-17.51-45.6
		c-16.78-16.05-37.57-18.24-51.8-18.24c-3.65,0-10.4,0.55-11.86,1.28c-1.64,0.73-2.19,1.64-2.19,3.65
		c-0.18,6.2-0.18,22.07-0.18,36.48V1103.8z"/>
	<path class="st2" d="M735.36,1156.51c0,4.92-0.18,5.29-2.37,6.57c-11.86,6.2-29.73,8.21-43.95,8.21
		c-44.68,0-84.26-21.16-84.26-71.49c0-29.18,15.14-49.61,31.73-59.64c17.51-10.58,33.74-11.85,49.06-11.85
		c12.59,0,28.63,2.19,32.28,2.92c3.83,0.73,10.21,1.82,14.41,2.01c2.19,0.18,2.55,0.91,2.55,2.19c0,2.01-1.28,7.11-1.28,29.91
		c0,2.92-0.55,3.83-2.01,3.83c-1.28,0-1.64-0.91-1.82-2.37c-0.55-4.19-1.46-10.03-6.2-15.14c-5.47-5.84-20.06-14.23-40.67-14.23
		c-10.03,0-23.35,0.73-36.11,11.31c-10.21,8.57-16.78,22.25-16.78,44.68c0,39.21,24.99,68.58,63.47,68.58c4.74,0,11.13,0,15.5-2.01
		c2.74-1.28,3.47-3.65,3.47-6.75v-17.14c0-9.12,0-16.05-0.18-21.52c-0.18-6.2-1.82-9.12-7.84-10.4c-1.46-0.36-4.56-0.55-7.11-0.55
		c-1.64,0-2.74-0.37-2.74-1.46c0-1.46,1.28-1.82,3.83-1.82c9.48,0,20.97,0.55,26.45,0.55c5.65,0,15.32-0.55,21.34-0.55
		c2.37,0,3.65,0.36,3.65,1.82c0,1.09-1.09,1.46-2.37,1.46c-1.46,0-2.74,0.18-4.92,0.55c-4.92,0.91-6.75,4.01-6.93,10.4
		c-0.18,5.47-0.18,12.77-0.18,21.89V1156.51z"/>
	<path class="st2" d="M761.89,1099.79c0-31.19,20.61-71.49,75.32-71.49c45.41,0,73.68,26.45,73.68,68.21
		c0,41.77-29.18,74.78-75.51,74.78C783.05,1171.29,761.89,1132.07,761.89,1099.79z M885.37,1103.26c0-40.85-23.53-66.21-53.44-66.21
		c-20.98,0-44.87,11.67-44.87,57.09c0,37.94,20.97,68.03,55.99,68.03C855.82,1162.17,885.37,1155.97,885.37,1103.26z"/>
	<path class="st2" d="M930.27,1166.54c-2.92-1.28-3.46-2.19-3.46-6.2c0-10.03,0.73-20.97,0.91-23.89c0.18-2.74,0.73-4.74,2.19-4.74
		c1.64,0,1.82,1.64,1.82,3.1c0,2.37,0.73,6.2,1.64,9.3c4.01,13.5,14.77,18.42,26.08,18.42c16.41,0,24.44-11.13,24.44-20.79
		c0-8.94-2.74-17.33-17.87-29.18l-8.39-6.57c-20.06-15.68-26.99-28.45-26.99-43.22c0-20.06,16.78-34.47,42.13-34.47
		c11.86,0,19.52,1.82,24.26,3.1c1.64,0.36,2.55,0.91,2.55,2.19c0,2.37-0.73,7.66-0.73,21.89c0,4.01-0.55,5.47-2.01,5.47
		c-1.28,0-1.82-1.09-1.82-3.28c0-1.64-0.91-7.29-4.74-12.04c-2.74-3.47-8.03-8.94-19.88-8.94c-13.5,0-21.7,7.84-21.7,18.79
		c0,8.39,4.19,14.77,19.33,26.26l5.11,3.83c22.07,16.6,29.91,29.18,29.91,46.51c0,10.58-4.01,23.16-17.14,31.73
		c-9.12,5.84-19.33,7.48-29,7.48C946.32,1171.29,938.11,1170.01,930.27,1166.54z"/>
</g>
</svg>
